Coordinates
version=1
nRows=9
nColumns=24
inDegrees=yes

Units are S.I. units (second, meters, Newtons, ...)
Angles are in degrees.

endheader
time	pelvis_tilt	pelvis_list	pelvis_rotation	pelvis_tx	pelvis_ty	pelvis_tz	hip_flexion_r	hip_adduction_r	hip_rotation_r	knee_angle_r	ankle_angle_r	subtalar_angle_r	mtp_angle_r	hip_flexion_l	hip_adduction_l	hip_rotation_l	knee_angle_l	ankle_angle_l	subtalar_angle_l	mtp_angle_l	lumbar_extension	lumbar_bending	lumbar_rotation
      0.85883333	     -4.52304163	     -0.11325311	     -7.33137189	     -0.15309229	      0.88492414	      0.32915359	    -12.89796712	      3.42103060	      5.87007202	    -11.40687890	     16.86258959	      9.47483835	     11.44605615	     34.24652859	     -3.76043807	    -11.49446430	    -20.08837018	      2.36798327	     -1.82893686	      0.14633672	     -2.46157544	      1.04720104	     14.19812688
      0.86300000	     -4.59794225	     -0.05343307	     -7.48840874	     -0.14701740	      0.88355765	      0.32910584	    -12.86527316	      3.26736704	      5.83270812	    -12.15895793	     16.97203287	      9.81543617	     11.64591738	     34.28913024	     -3.68949537	    -11.45621045	    -20.40221398	      2.40768713	     -1.79396601	      0.18137987	     -2.33110318	      0.96251742	     14.35186032
      0.86716667	     -4.68263713	      0.01352777	     -7.63078355	     -0.14092295	      0.88220084	      0.32905893	    -12.80061702	      3.11733231	      5.82623950	    -12.95653327	     17.06779662	     10.08599762	     11.89728883	     34.33938057	     -3.60364783	    -11.40695263	    -20.78022387	      2.43513149	     -1.82990091	      0.23088786	     -2.18102320	      0.84695967	     14.43993090
      0.87133333	     -4.76094373	      0.09074863	     -7.75117767	     -0.13479684	      0.88088364	      0.32896722	    -12.71324965	      2.95845207	      5.78501765	    -13.81271731	     17.13091072	     10.36633263	     12.22168348	     34.37683435	     -3.49040262	    -11.33918259	    -21.20589112	      2.44429409	     -1.92095875	      0.30043904	     -2.03734752	      0.71830792	     14.50404022
      0.87550000	     -4.81370199	      0.20835723	     -7.86202933	     -0.12860715	      0.87967193	      0.32885660	    -12.63326366	      2.75400513	      5.74109612	    -14.69053577	     17.04718739	     10.56389329	     15.43268526	     34.35334520	     -3.31568867	    -11.26236909	    -21.61125116	      2.38527330	     -2.17938042	      1.04126017	     -1.90547181	      0.51830486	     14.51830972
      0.87966667	     -4.88906280	      0.26163623	     -7.92730710	     -0.12246312	      0.87841115	      0.32872200	    -12.50506003	      2.64534934	      5.71989888	    -15.64493273	     17.03332896	     10.72383947	     15.49846777	     34.40636366	     -3.20179787	    -11.15819328	    -22.18046848	      2.48856086	     -2.26306952	      1.06777532	     -1.76867149	      0.40824153	     14.51465498
      0.88383333	     -4.96315672	      0.36356646	     -7.97064773	     -0.11628129	      0.87721642	      0.32848313	    -12.31294926	      2.47024861	      5.54918492	    -16.71094797	     16.97613062	     11.07605037	     15.69809147	     34.43315441	     -3.01031414	    -11.03866852	    -22.71303798	      2.41259769	     -2.51757846	      1.12912990	     -1.62102688	      0.25484167	     14.51441874
      0.88800000	     -5.03744893	      0.46904555	     -8.01152636	     -0.11007170	      0.87607742	      0.32827858	    -12.10668221	      2.30593536	      5.47808998	    -17.80247102	     16.83373408	     11.24244138	     15.86372831	     34.45706419	     -2.81704329	    -10.92375050	    -23.28861066	      2.47285932	     -2.78067059	      1.17888567	     -1.46245282	      0.05427758	     14.45568288
      0.89216667	     -5.11506486	      0.57962508	     -8.01122100	     -0.10386845	      0.87497811	      0.32798667	    -11.84546132	      2.13633921	      5.30548557	    -18.98641493	     16.65283933	     11.52643189	     16.10633996	     34.49244672	     -2.59111092	    -10.76564447	    -23.88878964	      2.46773691	     -3.11744719	      1.24508784	     -1.30279258	     -0.13081851	     14.37703626
